<?xml version="1.0" standalone="no"?>
<!DOCTYPE svg PUBLIC "-//W3C//DTD SVG 20010904//EN"
        "http://www.w3.org/TR/2001/REC-SVG-20010904/DTD/svg10.dtd">
<svg version="1.0" xmlns="http://www.w3.org/2000/svg"
     width="200.000000pt" height="200.000000pt" viewBox="0 0 200.000000 200.000000"
     preserveAspectRatio="xMidYMid meet">
    <metadata>
        Created by potrace 1.11, written by Peter Selinger 2001-2013
    </metadata>
    <g transform="translate(0.000000,200.000000) scale(0.100000,-0.100000)"
       fill="#000000" stroke="none">
        <path d="M1245 1974 c-3 -16 -11 -46 -16 -67 -6 -22 -8 -41 -6 -43 3 -3 13 25
22 61 10 36 15 68 12 71 -3 4 -9 -7 -12 -22z"/>
        <path d="M1830 1948 c0 -63 -22 -189 -46 -260 -17 -52 -74 -115 -142 -155 -45
-27 -47 -43 -5 -43 33 0 140 -28 173 -45 51 -26 106 -92 148 -175 l42 -85 0
207 0 208 -28 -6 -27 -6 -29 119 c-32 134 -74 284 -81 292 -3 2 -5 -21 -5 -51z"/>
        <path d="M561 1904 c0 -11 3 -14 6 -6 3 7 2 16 -1 19 -3 4 -6 -2 -5 -13z"/>
        <path d="M553 1795 c0 -44 2 -61 4 -37 2 23 2 59 0 80 -2 20 -4 1 -4 -43z"/>
        <path d="M1192 1779 c-12 -41 -27 -98 -34 -127 -7 -34 -14 -48 -20 -40 -13 22
-8 -253 6 -322 8 -36 13 -66 11 -68 -9 -10 -70 35 -97 71 -17 23 -27 33 -23
22 4 -11 14 -40 22 -65 8 -25 21 -60 29 -77 7 -18 10 -33 5 -33 -10 0 -118 47
-211 93 -86 42 -174 131 -224 226 -29 55 -35 75 -26 81 9 6 6 10 -9 15 -11 3
-21 11 -21 17 0 6 -3 8 -7 5 -3 -4 16 -51 43 -104 55 -111 137 -206 206 -240
157 -77 288 -127 288 -109 0 4 -9 19 -20 34 -10 15 -22 40 -26 55 l-6 28 33
-20 c19 -12 44 -21 56 -21 22 0 22 1 8 38 -50 130 -44 288 19 506 15 50 25 94
23 100 -2 5 -13 -24 -25 -65z"/>
        <path d="M460 1688 c-25 -28 -63 -77 -85 -109 -22 -32 -45 -59 -51 -59 -14 0
-16 -5 -56 -120 -47 -137 -98 -430 -86 -500 2 -14 8 11 12 55 5 44 11 84 14
90 14 22 34 -101 41 -245 6 -136 10 -162 33 -210 33 -72 78 -116 198 -196 55
-36 100 -70 100 -75 0 -10 -28 -16 -77 -17 -52 -2 -110 -37 -133 -82 -11 -22
-23 -40 -26 -40 -20 0 -48 29 -79 83 -20 34 -34 54 -31 44 3 -10 6 -27 6 -38
0 -46 128 -138 194 -139 25 0 27 -2 15 -16 -7 -8 -35 -27 -62 -41 -48 -24 -87
-27 -128 -9 -14 6 -15 3 -5 -28 l11 -36 622 0 621 0 29 47 c16 27 44 83 61
125 35 83 92 293 92 336 l0 27 -16 -30 c-40 -78 -146 -146 -286 -185 -125 -34
-348 -71 -469 -77 -116 -6 -118 -6 -184 26 -89 41 -299 170 -352 216 -25 21
-55 62 -75 102 -30 62 -33 74 -39 212 -4 80 -14 177 -22 215 -9 38 -14 73 -11
77 9 15 33 -3 45 -34 l13 -32 4 44 c2 24 10 54 19 68 20 30 92 73 123 73 l23
0 -20 -22 c-42 -46 -57 -90 -57 -168 0 -78 23 -148 53 -158 8 -3 11 0 7 6 -3
6 -2 13 4 17 5 3 10 11 10 17 0 7 -6 6 -15 -2 -8 -7 -15 -9 -15 -4 0 5 12 17
26 28 61 44 162 9 134 -45 l-12 -24 25 25 c28 27 57 120 57 180 -1 19 -7 53
-15 75 -8 21 -12 41 -10 43 2 2 15 -4 29 -13 17 -11 26 -13 26 -6 0 19 -26 64
-48 84 -23 21 -143 57 -190 57 -23 0 -40 8 -53 23 l-20 22 6 -30 c5 -27 1 -32
-34 -49 -30 -14 -43 -16 -59 -7 -11 6 -23 11 -26 11 -11 0 -6 -19 10 -34 14
-15 14 -20 -3 -61 -22 -54 -43 -59 -43 -11 0 104 76 321 123 350 9 6 17 16 17
23 0 7 32 53 70 104 64 83 75 99 68 99 -2 0 -23 -23 -48 -52z m98 -580 c17
-17 15 -83 -3 -98 -22 -18 -62 -4 -69 24 -14 58 36 110 72 74z m1089 -748
c-10 -39 -18 -54 -28 -51 -8 2 -36 9 -63 16 l-49 11 54 31 c30 17 63 38 74 46
26 20 27 14 12 -53z m-337 -80 c0 -10 -19 -16 -179 -54 -57 -14 -119 -30 -138
-36 -34 -12 -143 3 -143 19 0 5 30 11 68 14 68 5 207 29 317 52 77 17 75 17
75 5z"/>
        <path d="M561 1689 c0 -13 4 -33 9 -44 7 -14 8 -8 3 20 -7 46 -13 59 -12 24z"/>
        <path d="M1346 1670 c4 -14 22 -55 40 -92 24 -47 30 -68 21 -71 -7 -4 -6 -6 4
-6 8 -1 37 -33 64 -73 63 -92 229 -260 238 -240 1 4 0 32 -4 62 -5 44 -6 48
-7 18 -1 -21 -7 -38 -13 -38 -21 0 -175 164 -221 235 -25 39 -64 106 -87 150
-23 44 -39 69 -35 55z"/>
        <path d="M1218 1523 c6 -2 18 -2 25 0 6 3 1 5 -13 5 -14 0 -19 -2 -12 -5z"/>
        <path d="M1258 1202 c-46 -27 -88 -70 -88 -91 0 -14 6 -14 33 3 12 7 36 17 52
20 30 6 30 6 9 -11 -40 -33 -57 -83 -62 -175 -5 -105 9 -153 42 -143 12 4 27
7 34 7 7 1 10 8 8 15 -4 9 0 13 12 11 11 -2 16 3 14 13 -2 14 6 16 44 13 46
-3 84 -25 84 -51 0 -28 29 -11 48 30 34 71 46 154 29 209 -16 52 -15 52 41 11
34 -26 92 -116 92 -146 0 -16 2 -16 23 -2 13 8 27 12 30 8 4 -3 7 15 7 40 0
26 -4 47 -9 47 -4 0 -22 23 -40 51 -26 42 -29 54 -19 66 10 13 8 14 -15 11
-38 -4 -118 50 -111 75 5 16 3 17 -16 7 -16 -8 -30 -9 -52 -1 -58 21 -138 13
-190 -17z m120 -164 c29 -29 3 -118 -34 -118 -37 0 -57 67 -34 111 12 21 50
25 68 7z"/>
        <path d="M172 714 c-2 -150 5 -224 29 -318 18 -67 19 -33 2 50 -9 43 -19 158
-23 254 l-6 175 -2 -161z"/>
        <path d="M700 675 c0 -8 2 -15 4 -15 2 0 6 7 10 15 3 8 1 15 -4 15 -6 0 -10
-7 -10 -15z"/>
        <path d="M997 639 c4 -13 8 -18 11 -10 2 7 -1 18 -6 23 -8 8 -9 4 -5 -13z"/>
        <path d="M1034 453 c-26 -28 -19 -43 18 -43 25 0 50 40 36 57 -15 19 -26 16
-54 -14z"/>
        <path d="M1979 68 c-7 -13 -19 -33 -27 -45 -8 -13 -10 -23 -5 -23 7 0 25 29
51 83 9 18 -9 4 -19 -15z"/>
        <path d="M0 16 c0 -9 5 -16 10 -16 6 0 10 4 10 9 0 6 -4 13 -10 16 -5 3 -10
-1 -10 -9z"/>
    </g>
</svg>
